<?xml version="1.0" encoding="UTF-8"?>
<svg id="Layer_2" data-name="Layer 2" xmlns="http://www.w3.org/2000/svg" viewBox="0 0 89.76 57.63">
  <defs>
    <style>
      .cls-1 {
        fill: #47b863;
      }

      .cls-1, .cls-2 {
        stroke-width: 0px;
      }

      .cls-2 {
        fill: #1d3260;
      }
    </style>
  </defs>
  <g id="Layer_1-2" data-name="Layer 1">
    <g>
      <path class="cls-2" d="m74.17,47.04c0,2.61,0,5.22,0,7.83,0,1.07-.25,1.99-1.35,2.42-1.07.42-1.81-.17-2.51-.87-3.48-3.49-6.99-6.97-10.45-10.48-2-2.02-2.84-2.07-4.82-.09-3.52,3.53-7.04,7.06-10.57,10.57-1.58,1.58-2.69,1.6-4.25.03C27.21,43.44,14.21,30.41,1.2,17.38c-.88-.88-1.56-1.83-.99-3.16.56-1.3,1.7-1.56,2.94-1.56,5.08-.01,10.16,0,15.23-.02,1.14,0,1.96.51,2.73,1.29,7.6,7.63,15.22,15.24,22.84,22.86,1.46,1.46,2.5,1.58,3.69.49,1.22-1.12,1.25-2.25-.02-3.57-1.98-2.05-4.01-4.05-6.02-6.06-3.42-3.43-6.83-6.86-10.26-10.27-.91-.9-1.52-1.84-1.04-3.15.5-1.36,1.67-1.56,2.91-1.56,5.03,0,10.06,0,15.09-.01,1.21,0,2.16.42,3.03,1.29,6.93,7.03,13.87,14.04,20.85,21.02,1.37,1.37,2.04,2.89,1.99,4.82-.06,2.42-.02,4.84-.02,7.26h.01Z"/>
      <path class="cls-1" d="m61.28,13.09c1.47-2.19,3.14-4.16,5.57-5.21,1.06-.45,2.3-.53,3.48-.61.54-.04.93-.12,1.34-.48,2.91-2.58,6.09-4.73,9.81-5.97,2.3-.77,4.65-1.05,7.07-.59.58.11.87.38.98.97.5,2.52.13,4.94-.74,7.31-1.28,3.48-3.41,6.42-5.89,9.14-.44.48-.64.89-.52,1.58.11.65,0,1.38-.19,2.02-.92,3.09-3.26,4.95-5.8,6.68-1.9-8.18-6.97-12.97-15.11-14.83Zm21.96-3.47c.02-1.77-1.47-3.25-3.26-3.24-1.77.01-3.21,1.41-3.24,3.16-.04,1.75,1.45,3.23,3.25,3.24,1.75,0,3.23-1.44,3.24-3.16Z"/>
    </g>
  </g>
</svg>