<?xml version="1.0" encoding="UTF-8"?>
<svg id="Layer_2" data-name="Layer 2" xmlns="http://www.w3.org/2000/svg" viewBox="0 0 570.61 112.58">
  <defs>
    <style>
      .cls-1 {
        fill: #fff;
        stroke-width: 0px;
      }
    </style>
  </defs>
  <g id="Layer_1-2" data-name="Layer 1">
    <g>
      <g>
        <path class="cls-1" d="m144.9,91.9c0,5.1-.01,10.2,0,15.3,0,2.09-.48,3.89-2.64,4.73-2.09.82-3.53-.32-4.9-1.69-6.81-6.83-13.65-13.62-20.42-20.48-3.9-3.96-5.55-4.04-9.41-.17-6.88,6.89-13.75,13.78-20.64,20.66-3.09,3.08-5.25,3.12-8.3.07C53.16,84.87,27.75,59.41,2.34,33.96c-1.71-1.72-3.05-3.57-1.93-6.17,1.1-2.54,3.32-3.04,5.75-3.04,9.92-.02,19.84,0,29.76-.05,2.24-.01,3.82.99,5.34,2.51,14.86,14.91,29.74,29.78,44.63,44.66,2.85,2.84,4.88,3.09,7.2.96,2.38-2.18,2.45-4.39-.05-6.98-3.86-4-7.83-7.91-11.75-11.84-6.68-6.7-13.34-13.41-20.05-20.07-1.77-1.75-2.97-3.6-2.03-6.16.98-2.67,3.26-3.04,5.68-3.05,9.83-.01,19.65.01,29.48-.02,2.37,0,4.23.82,5.91,2.53,13.54,13.73,27.1,27.44,40.74,41.07,2.67,2.67,3.98,5.65,3.88,9.42-.13,4.72-.03,9.46-.03,14.18h.03Z"/>
        <path class="cls-1" d="m294.66,80.93c-4.05-1.15-7.2-2.87-9.48-5.15s-3.41-5.69-3.41-10.24c0-5.49,1.97-9.79,5.9-12.89,3.94-3.1,9.3-4.66,16.09-4.66,2.82,0,5.6.25,8.34.76,2.74.51,5.53,1.26,8.34,2.28-.15,1.88-.51,3.83-1.08,5.85-.58,2.02-1.26,3.79-2.06,5.31-1.73-.72-3.65-1.35-5.74-1.9-2.1-.54-4.3-.81-6.61-.81-2.46,0-4.37.38-5.74,1.14-1.37.76-2.06,1.97-2.06,3.63s.49,2.71,1.46,3.36,2.37,1.26,4.17,1.84l6.18,1.84c2.02.58,3.85,1.28,5.47,2.11,1.63.83,3.02,1.86,4.17,3.09,1.15,1.23,2.06,2.75,2.71,4.55.65,1.81.98,4.01.98,6.61s-.56,5.17-1.68,7.48c-1.12,2.31-2.75,4.32-4.88,6.01-2.13,1.7-4.71,3.03-7.75,4.01-3.03.98-6.47,1.46-10.29,1.46-1.73,0-3.32-.05-4.77-.16-1.45-.11-2.84-.29-4.17-.54-1.34-.25-2.65-.56-3.95-.92-1.3-.36-2.71-.83-4.23-1.41.14-1.95.49-3.92,1.03-5.91.54-1.99,1.25-3.92,2.11-5.8,2.38.94,4.64,1.64,6.77,2.11,2.13.47,4.35.7,6.66.7,1.01,0,2.11-.09,3.3-.27,1.19-.18,2.29-.5,3.3-.98,1.01-.47,1.86-1.08,2.55-1.84.69-.76,1.03-1.75,1.03-2.98,0-1.73-.52-2.98-1.57-3.74-1.05-.76-2.51-1.43-4.39-2l-6.72-1.95Z"/>
        <path class="cls-1" d="m332.69,49.29c2.6-.43,5.16-.65,7.69-.65s5.09.22,7.69.65v29.69c0,2.96.23,5.4.7,7.31.47,1.91,1.19,3.43,2.17,4.55.98,1.12,2.18,1.91,3.63,2.38,1.44.47,3.14.71,5.09.71,2.67,0,4.91-.25,6.72-.76v-43.88c2.6-.43,5.13-.65,7.58-.65s5.09.22,7.69.65v53.85c-2.31.8-5.36,1.57-9.16,2.33-3.79.76-7.75,1.14-11.86,1.14-3.68,0-7.22-.29-10.62-.87-3.4-.58-6.38-1.8-8.94-3.68-2.56-1.88-4.6-4.62-6.12-8.23-1.52-3.61-2.28-8.41-2.28-14.41v-30.12Z"/>
        <path class="cls-1" d="m433.23,92.09c.87,1.45,1.59,3.13,2.17,5.04.58,1.92.87,4.17.87,6.77-2.89,1.16-5.6,1.9-8.13,2.22s-5.17.49-7.91.49c-4.7,0-8.78-.74-12.24-2.22-3.47-1.48-6.34-3.52-8.61-6.12-2.28-2.6-3.99-5.69-5.15-9.26-1.16-3.58-1.73-7.46-1.73-11.65s.56-7.94,1.68-11.48c1.12-3.54,2.82-6.64,5.09-9.32,2.27-2.67,5.11-4.77,8.5-6.28,3.39-1.52,7.33-2.28,11.81-2.28,1.59,0,3.05.04,4.39.11,1.34.07,2.62.22,3.85.43,1.23.22,2.45.51,3.68.87,1.23.36,2.6.83,4.12,1.41,0,1.66-.22,3.52-.65,5.58s-1.12,4.03-2.06,5.91c-2.17-.72-4.06-1.21-5.69-1.46-1.62-.25-3.49-.38-5.58-.38-4.48,0-7.86,1.46-10.13,4.39-2.27,2.92-3.41,7.1-3.41,12.51,0,5.85,1.23,10.11,3.68,12.78,2.45,2.67,5.78,4.01,9.97,4.01,1.08,0,2.08-.02,2.98-.05.9-.04,1.79-.12,2.65-.27.87-.14,1.75-.36,2.65-.65.9-.29,1.97-.65,3.2-1.08Z"/>
        <path class="cls-1" d="m446.13,26.11c2.45-.43,4.98-.65,7.58-.65s5.16.22,7.69.65v79.2c-2.53.43-5.09.65-7.69.65s-5.13-.22-7.58-.65V26.11Zm17.44,49.84l13.87-26.65c2.82-.43,5.67-.65,8.56-.65s5.42.22,8.02.65l-14.3,25.89,16.68,30.12c-2.96.43-5.81.65-8.56.65-2.53,0-5.2-.22-8.02-.65l-16.25-29.36Z"/>
      </g>
      <g>
        <path class="cls-1" d="m119.72,25.57c2.87-4.28,6.13-8.13,10.89-10.17,2.06-.89,4.5-1.04,6.79-1.19,1.06-.07,1.82-.23,2.62-.94,5.69-5.03,11.9-9.23,19.17-11.67,4.5-1.51,9.09-2.05,13.81-1.15,1.13.22,1.69.75,1.92,1.89.98,4.92.26,9.64-1.45,14.27-2.51,6.8-6.67,12.55-11.5,17.85-.85.93-1.24,1.73-1.02,3.08.21,1.27,0,2.7-.38,3.95-1.8,6.03-6.37,9.67-11.33,13.05-3.7-15.98-13.63-25.34-29.53-28.97Zm42.9-6.79c.03-3.46-2.87-6.35-6.36-6.32-3.46.02-6.26,2.76-6.33,6.18-.07,3.42,2.84,6.31,6.36,6.32,3.41.01,6.31-2.81,6.34-6.17Z"/>
        <path class="cls-1" d="m171.26,82.01c.29,4.33,1.8,7.48,4.55,9.43,2.74,1.95,6.36,2.92,10.83,2.92,2.46,0,4.97-.23,7.53-.7,2.56-.47,5-1.14,7.31-2,.79,1.45,1.48,3.18,2.06,5.2.58,2.02.9,4.19.98,6.5-5.63,2.17-11.99,3.25-19.07,3.25-5.2,0-9.66-.72-13.38-2.17-3.72-1.44-6.75-3.45-9.1-6.01-2.35-2.56-4.08-5.62-5.2-9.16-1.12-3.54-1.68-7.4-1.68-11.59s.58-7.98,1.73-11.59c1.15-3.61,2.87-6.75,5.15-9.43,2.28-2.67,5.09-4.78,8.45-6.34,3.36-1.55,7.28-2.33,11.76-2.33,3.9,0,7.37.69,10.4,2.06,3.03,1.37,5.62,3.25,7.75,5.63,2.13,2.38,3.74,5.22,4.82,8.5,1.08,3.29,1.62,6.81,1.62,10.56,0,1.37-.05,2.73-.16,4.06-.11,1.34-.24,2.4-.38,3.2h-35.97Zm21.99-10.73c-.15-3.47-1.1-6.27-2.87-8.4-1.77-2.13-4.24-3.2-7.42-3.2-3.61,0-6.36,1.01-8.23,3.03-1.88,2.02-3,4.88-3.36,8.56h21.89Z"/>
        <path class="cls-1" d="m219.69,26.11c2.6-.43,5.13-.65,7.58-.65s5.09.22,7.69.65v28.6c1.08-1.95,2.89-3.56,5.42-4.82,2.53-1.26,5.42-1.9,8.67-1.9s6.27.58,9.05,1.73c2.78,1.16,5.18,2.91,7.2,5.25,2.02,2.35,3.61,5.29,4.77,8.83,1.15,3.54,1.73,7.73,1.73,12.57s-.72,8.9-2.17,12.62c-1.45,3.72-3.54,6.88-6.28,9.48-2.75,2.6-6.1,4.6-10.08,6.01-3.97,1.41-8.45,2.11-13.43,2.11-1.59,0-3.27-.07-5.04-.22-1.77-.15-3.56-.34-5.36-.6-1.81-.25-3.54-.58-5.2-.98-1.66-.4-3.18-.85-4.55-1.35V26.11Zm15.28,67.07c.87.29,1.79.47,2.76.54.98.07,1.97.11,2.98.11,4.69,0,8.38-1.37,11.05-4.12,2.67-2.74,4.01-7.04,4.01-12.89,0-5.2-.83-9.16-2.49-11.86-1.66-2.71-4.48-4.06-8.45-4.06-2.89,0-5.25.96-7.1,2.87-1.84,1.92-2.76,4.93-2.76,9.05v20.37Z"/>
        <path class="cls-1" d="m508.1,60.99h-7.26c-.22-.94-.38-1.93-.49-2.98-.11-1.05-.16-2.04-.16-2.98,0-1.95.22-3.86.65-5.74h22.32v56.01c-2.6.43-5.13.65-7.58.65s-4.88-.22-7.48-.65v-44.31Zm-2.28-21.13c-.43-2.46-.65-4.88-.65-7.26s.22-4.73.65-7.26c1.23-.22,2.55-.38,3.95-.49,1.41-.11,2.69-.16,3.85-.16,1.23,0,2.56.05,4.01.16,1.44.11,2.78.27,4.01.49.22,1.23.36,2.44.43,3.63.07,1.19.11,2.4.11,3.63,0,1.16-.04,2.35-.11,3.58-.07,1.23-.22,2.46-.43,3.68-1.23.22-2.55.36-3.96.43-1.41.07-2.73.11-3.95.11-1.16,0-2.46-.04-3.9-.11-1.45-.07-2.78-.22-4.01-.43Z"/>
        <path class="cls-1" d="m539.84,60.99h-7.04l-.54-2.17,20.26-25.89h2.49v16.36h13.11c.22,1.08.36,2.06.43,2.93.07.87.11,1.77.11,2.71,0,1.01-.04,1.99-.11,2.93-.07.94-.22,1.99-.43,3.14h-13.11v21.99c0,2.24.18,4.05.54,5.42.36,1.37.88,2.46,1.57,3.25.69.79,1.53,1.34,2.55,1.62,1.01.29,2.2.43,3.58.43,1.08,0,2.15-.09,3.2-.27,1.05-.18,1.97-.34,2.76-.49.5,1.37.87,2.8,1.08,4.28.22,1.48.33,2.8.33,3.96,0,.8-.02,1.46-.05,2-.04.54-.09,1.07-.16,1.57-3.32.79-6.75,1.19-10.29,1.19-6.57,0-11.59-1.53-15.06-4.6-3.47-3.07-5.2-8.07-5.2-15.01v-25.35Z"/>
      </g>
    </g>
  </g>
</svg>